{
    "asset" : {
        "generator" : "Khronos glTF Blender I/O v1.1.45",
        "version" : "2.0"
    },
    "extensionsUsed" : [
        "KHR_texture_transform"
    ],
    "extensionsRequired" : [
        "KHR_texture_transform"
    ],
    "scene" : 0,
    "scenes" : [
        {
            "name" : "Scene",
            "nodes" : [
                1
            ]
        }
    ],
    "nodes" : [
        {
            "mesh" : 0,
            "name" : "model_2"
        },
        {
            "children" : [
                0
            ],
            "name" : "model",
            "rotation" : [
                1,
                0,
                0,
                -1.3435884227419592e-07
            ]
        }
    ],
    "materials" : [
        {
            "doubleSided" : true,
            "emissiveFactor" : [
                0,
                0,
                0
            ],
            "name" : "Mat",
            "pbrMetallicRoughness" : {
                "baseColorTexture" : {
                    "extensions" : {
                        "KHR_texture_transform" : {
                            "offset" : [
                                0,
                                -1
                            ]
                        }
                    },
                    "index" : 0,
                    "texCoord" : 0
                },
                "metallicFactor" : 0,
                "roughnessFactor" : 0.4343145787715912
            }
        }
    ],
    "meshes" : [
        {
            "name" : "Mesh",
            "primitives" : [
                {
                    "attributes" : {
                        "POSITION" : 0,
                        "NORMAL" : 1,
                        "TEXCOORD_0" : 2,
                        "TEXCOORD_1" : 3
                    },
                    "indices" : 4,
                    "material" : 0
                }
            ]
        }
    ],
    "textures" : [
        {
            "source" : 0
        }
    ],
    "images" : [
        {
            "bufferView" : 5,
            "mimeType" : "image/png",
            "name" : "texture"
        }
    ],
    "accessors" : [
        {
            "bufferView" : 0,
            "componentType" : 5126,
            "count" : 2131,
            "max" : [
                2.7200002670288086,
                4.9200005531311035,
                1.0324660539627075
            ],
            "min" : [
                -2.7200002670288086,
                -4.9377617835998535,
                -1.0303198099136353
            ],
            "type" : "VEC3"
        },
        {
            "bufferView" : 1,
            "componentType" : 5126,
            "count" : 2131,
            "type" : "VEC3"
        },
        {
            "bufferView" : 2,
            "componentType" : 5126,
            "count" : 2131,
            "type" : "VEC2"
        },
        {
            "bufferView" : 3,
            "componentType" : 5126,
            "count" : 2131,
            "type" : "VEC2"
        },
        {
            "bufferView" : 4,
            "componentType" : 5123,
            "count" : 7584,
            "type" : "SCALAR"
        }
    ],
    "bufferViews" : [
        {
            "buffer" : 0,
            "byteLength" : 25572,
            "byteOffset" : 0
        },
        {
            "buffer" : 0,
            "byteLength" : 25572,
            "byteOffset" : 25572
        },
        {
            "buffer" : 0,
            "byteLength" : 17048,
            "byteOffset" : 51144
        },
        {
            "buffer" : 0,
            "byteLength" : 17048,
            "byteOffset" : 68192
        },
        {
            "buffer" : 0,
            "byteLength" : 15168,
            "byteOffset" : 85240
        },
        {
            "buffer" : 0,
            "byteLength" : 15956,
            "byteOffset" : 100408
        }
    ],
    "buffers" : [
        {
            "byteLength" : 116364,
            "uri" : "data:application/octet-stream;base64,"
        }
    ]
}
